<mxfile host="app.diagrams.net" modified="2023-04-17T01:49:10.382Z" agent="Mozilla/5.0 (Macintosh; Intel Mac OS X 10_15_7) AppleWebKit/537.36 (KHTML, like Gecko) Chrome/111.0.0.0 Safari/537.36" etag="n9fA4_9C5qISCoibhy56" version="21.1.5" type="device" pages="2">
  <diagram name="Page-1" id="c-MUXKATVoiSiFvxsPMk">
    <mxGraphModel dx="417" dy="233" grid="1" gridSize="10" guides="1" tooltips="1" connect="1" arrows="1" fold="1" page="1" pageScale="1" pageWidth="827" pageHeight="1169" math="0" shadow="0">
      <root>
        <mxCell id="0" />
        <mxCell id="1" parent="0" />
        <mxCell id="1EkqK1BKy1AhhcX9WGHw-2" value="" style="endArrow=none;html=1;rounded=0;" edge="1" parent="1" source="1EkqK1BKy1AhhcX9WGHw-11">
          <mxGeometry width="50" height="50" relative="1" as="geometry">
            <mxPoint x="230" y="260" as="sourcePoint" />
            <mxPoint x="500" y="259" as="targetPoint" />
          </mxGeometry>
        </mxCell>
        <mxCell id="1EkqK1BKy1AhhcX9WGHw-3" value="" style="endArrow=none;html=1;rounded=0;" edge="1" parent="1" source="1EkqK1BKy1AhhcX9WGHw-1">
          <mxGeometry width="50" height="50" relative="1" as="geometry">
            <mxPoint x="230" y="320" as="sourcePoint" />
            <mxPoint x="500" y="320" as="targetPoint" />
          </mxGeometry>
        </mxCell>
        <mxCell id="1EkqK1BKy1AhhcX9WGHw-5" value="" style="endArrow=none;html=1;rounded=0;" edge="1" parent="1" target="1EkqK1BKy1AhhcX9WGHw-4">
          <mxGeometry width="50" height="50" relative="1" as="geometry">
            <mxPoint x="230" y="260" as="sourcePoint" />
            <mxPoint x="500" y="260" as="targetPoint" />
          </mxGeometry>
        </mxCell>
        <mxCell id="1EkqK1BKy1AhhcX9WGHw-4" value="&lt;b&gt;H&lt;/b&gt;" style="rounded=0;whiteSpace=wrap;html=1;" vertex="1" parent="1">
          <mxGeometry x="280" y="244" width="40" height="30" as="geometry" />
        </mxCell>
        <mxCell id="1EkqK1BKy1AhhcX9WGHw-7" value="|0&amp;gt;" style="text;html=1;strokeColor=none;fillColor=none;align=center;verticalAlign=middle;whiteSpace=wrap;rounded=0;" vertex="1" parent="1">
          <mxGeometry x="180" y="246" width="60" height="30" as="geometry" />
        </mxCell>
        <mxCell id="1EkqK1BKy1AhhcX9WGHw-8" value="|0&amp;gt;" style="text;html=1;strokeColor=none;fillColor=none;align=center;verticalAlign=middle;whiteSpace=wrap;rounded=0;" vertex="1" parent="1">
          <mxGeometry x="180" y="300" width="60" height="30" as="geometry" />
        </mxCell>
        <mxCell id="1EkqK1BKy1AhhcX9WGHw-9" value="" style="endArrow=none;html=1;rounded=0;" edge="1" parent="1" target="1EkqK1BKy1AhhcX9WGHw-1">
          <mxGeometry width="50" height="50" relative="1" as="geometry">
            <mxPoint x="230" y="320" as="sourcePoint" />
            <mxPoint x="500" y="320" as="targetPoint" />
          </mxGeometry>
        </mxCell>
        <mxCell id="1EkqK1BKy1AhhcX9WGHw-1" value="&lt;b&gt;Uf&lt;/b&gt;" style="rounded=0;whiteSpace=wrap;html=1;" vertex="1" parent="1">
          <mxGeometry x="340" y="305" width="40" height="30" as="geometry" />
        </mxCell>
        <mxCell id="1EkqK1BKy1AhhcX9WGHw-10" value="" style="endArrow=none;html=1;rounded=0;exitX=0.5;exitY=0;exitDx=0;exitDy=0;" edge="1" parent="1" source="1EkqK1BKy1AhhcX9WGHw-1">
          <mxGeometry width="50" height="50" relative="1" as="geometry">
            <mxPoint x="350" y="310" as="sourcePoint" />
            <mxPoint x="360" y="260" as="targetPoint" />
          </mxGeometry>
        </mxCell>
        <mxCell id="1EkqK1BKy1AhhcX9WGHw-12" value="" style="endArrow=none;html=1;rounded=0;" edge="1" parent="1" source="1EkqK1BKy1AhhcX9WGHw-4" target="1EkqK1BKy1AhhcX9WGHw-11">
          <mxGeometry width="50" height="50" relative="1" as="geometry">
            <mxPoint x="320" y="261" as="sourcePoint" />
            <mxPoint x="500" y="260" as="targetPoint" />
          </mxGeometry>
        </mxCell>
        <mxCell id="1EkqK1BKy1AhhcX9WGHw-11" value="&lt;b&gt;H&lt;/b&gt;" style="rounded=0;whiteSpace=wrap;html=1;" vertex="1" parent="1">
          <mxGeometry x="400" y="244" width="40" height="30" as="geometry" />
        </mxCell>
        <mxCell id="1EkqK1BKy1AhhcX9WGHw-13" value="" style="endArrow=none;dashed=1;html=1;dashPattern=1 3;strokeWidth=2;rounded=0;" edge="1" parent="1">
          <mxGeometry width="50" height="50" relative="1" as="geometry">
            <mxPoint x="260" y="340" as="sourcePoint" />
            <mxPoint x="260" y="240" as="targetPoint" />
          </mxGeometry>
        </mxCell>
        <mxCell id="1EkqK1BKy1AhhcX9WGHw-14" value="" style="endArrow=none;dashed=1;html=1;dashPattern=1 3;strokeWidth=2;rounded=0;" edge="1" parent="1">
          <mxGeometry width="50" height="50" relative="1" as="geometry">
            <mxPoint x="330" y="338" as="sourcePoint" />
            <mxPoint x="330" y="238" as="targetPoint" />
          </mxGeometry>
        </mxCell>
        <mxCell id="1EkqK1BKy1AhhcX9WGHw-15" value="" style="endArrow=none;dashed=1;html=1;dashPattern=1 3;strokeWidth=2;rounded=0;" edge="1" parent="1">
          <mxGeometry width="50" height="50" relative="1" as="geometry">
            <mxPoint x="390" y="339" as="sourcePoint" />
            <mxPoint x="390" y="239" as="targetPoint" />
          </mxGeometry>
        </mxCell>
        <mxCell id="1EkqK1BKy1AhhcX9WGHw-16" value="" style="endArrow=none;dashed=1;html=1;dashPattern=1 3;strokeWidth=2;rounded=0;" edge="1" parent="1">
          <mxGeometry width="50" height="50" relative="1" as="geometry">
            <mxPoint x="460" y="339" as="sourcePoint" />
            <mxPoint x="460" y="239" as="targetPoint" />
          </mxGeometry>
        </mxCell>
        <mxCell id="1EkqK1BKy1AhhcX9WGHw-17" value="T0" style="text;html=1;align=center;verticalAlign=middle;resizable=0;points=[];autosize=1;strokeColor=none;fillColor=none;" vertex="1" parent="1">
          <mxGeometry x="240" y="335" width="40" height="30" as="geometry" />
        </mxCell>
        <mxCell id="1EkqK1BKy1AhhcX9WGHw-18" value="T1" style="text;html=1;align=center;verticalAlign=middle;resizable=0;points=[];autosize=1;strokeColor=none;fillColor=none;" vertex="1" parent="1">
          <mxGeometry x="310" y="335" width="40" height="30" as="geometry" />
        </mxCell>
        <mxCell id="1EkqK1BKy1AhhcX9WGHw-19" value="T2" style="text;html=1;align=center;verticalAlign=middle;resizable=0;points=[];autosize=1;strokeColor=none;fillColor=none;" vertex="1" parent="1">
          <mxGeometry x="370" y="335" width="40" height="30" as="geometry" />
        </mxCell>
        <mxCell id="1EkqK1BKy1AhhcX9WGHw-20" value="T3" style="text;html=1;align=center;verticalAlign=middle;resizable=0;points=[];autosize=1;strokeColor=none;fillColor=none;" vertex="1" parent="1">
          <mxGeometry x="440" y="335" width="40" height="30" as="geometry" />
        </mxCell>
        <mxCell id="1EkqK1BKy1AhhcX9WGHw-21" value="" style="shape=image;html=1;verticalAlign=top;verticalLabelPosition=bottom;labelBackgroundColor=#ffffff;imageAspect=0;aspect=fixed;image=https://cdn4.iconfinder.com/data/icons/48-bubbles/48/48.Dashboard-128.png;flipV=0;flipH=1;" vertex="1" parent="1">
          <mxGeometry x="500" y="245" width="28" height="28" as="geometry" />
        </mxCell>
      </root>
    </mxGraphModel>
  </diagram>
  <diagram name="Page2" id="dWKNOQXcBhRr5zUBLWRN">
    <mxGraphModel dx="530" dy="296" grid="1" gridSize="10" guides="1" tooltips="1" connect="1" arrows="1" fold="1" page="1" pageScale="1" pageWidth="827" pageHeight="1169" math="0" shadow="0">
      <root>
        <mxCell id="OcA6J6RhY9BSnMuU-lQl-0" />
        <mxCell id="OcA6J6RhY9BSnMuU-lQl-1" parent="OcA6J6RhY9BSnMuU-lQl-0" />
        <mxCell id="OcA6J6RhY9BSnMuU-lQl-2" value="" style="endArrow=none;html=1;rounded=0;" edge="1" parent="OcA6J6RhY9BSnMuU-lQl-1" source="OcA6J6RhY9BSnMuU-lQl-12">
          <mxGeometry width="50" height="50" relative="1" as="geometry">
            <mxPoint x="230" y="260" as="sourcePoint" />
            <mxPoint x="500" y="259" as="targetPoint" />
          </mxGeometry>
        </mxCell>
        <mxCell id="OcA6J6RhY9BSnMuU-lQl-4" value="" style="endArrow=none;html=1;rounded=0;" edge="1" parent="OcA6J6RhY9BSnMuU-lQl-1" target="OcA6J6RhY9BSnMuU-lQl-5">
          <mxGeometry width="50" height="50" relative="1" as="geometry">
            <mxPoint x="230" y="260" as="sourcePoint" />
            <mxPoint x="500" y="260" as="targetPoint" />
          </mxGeometry>
        </mxCell>
        <mxCell id="OcA6J6RhY9BSnMuU-lQl-5" value="&lt;b&gt;H&lt;/b&gt;" style="rounded=0;whiteSpace=wrap;html=1;" vertex="1" parent="OcA6J6RhY9BSnMuU-lQl-1">
          <mxGeometry x="280" y="244" width="40" height="30" as="geometry" />
        </mxCell>
        <mxCell id="OcA6J6RhY9BSnMuU-lQl-6" value="|0&amp;gt;" style="text;html=1;strokeColor=none;fillColor=none;align=center;verticalAlign=middle;whiteSpace=wrap;rounded=0;" vertex="1" parent="OcA6J6RhY9BSnMuU-lQl-1">
          <mxGeometry x="180" y="246" width="60" height="30" as="geometry" />
        </mxCell>
        <mxCell id="OcA6J6RhY9BSnMuU-lQl-10" value="" style="endArrow=none;html=1;rounded=0;exitX=0.5;exitY=0;exitDx=0;exitDy=0;" edge="1" parent="OcA6J6RhY9BSnMuU-lQl-1" source="OcA6J6RhY9BSnMuU-lQl-9">
          <mxGeometry width="50" height="50" relative="1" as="geometry">
            <mxPoint x="350" y="310" as="sourcePoint" />
            <mxPoint x="360" y="260" as="targetPoint" />
          </mxGeometry>
        </mxCell>
        <mxCell id="OcA6J6RhY9BSnMuU-lQl-11" value="" style="endArrow=none;html=1;rounded=0;" edge="1" parent="OcA6J6RhY9BSnMuU-lQl-1" source="OcA6J6RhY9BSnMuU-lQl-9" target="OcA6J6RhY9BSnMuU-lQl-12">
          <mxGeometry width="50" height="50" relative="1" as="geometry">
            <mxPoint x="320" y="261" as="sourcePoint" />
            <mxPoint x="500" y="260" as="targetPoint" />
          </mxGeometry>
        </mxCell>
        <mxCell id="OcA6J6RhY9BSnMuU-lQl-12" value="&lt;b&gt;H&lt;/b&gt;" style="rounded=0;whiteSpace=wrap;html=1;" vertex="1" parent="OcA6J6RhY9BSnMuU-lQl-1">
          <mxGeometry x="400" y="244" width="40" height="30" as="geometry" />
        </mxCell>
        <mxCell id="OcA6J6RhY9BSnMuU-lQl-13" value="" style="endArrow=none;dashed=1;html=1;dashPattern=1 3;strokeWidth=2;rounded=0;" edge="1" parent="OcA6J6RhY9BSnMuU-lQl-1">
          <mxGeometry width="50" height="50" relative="1" as="geometry">
            <mxPoint x="260" y="290" as="sourcePoint" />
            <mxPoint x="260" y="240" as="targetPoint" />
          </mxGeometry>
        </mxCell>
        <mxCell id="OcA6J6RhY9BSnMuU-lQl-14" value="" style="endArrow=none;dashed=1;html=1;dashPattern=1 3;strokeWidth=2;rounded=0;" edge="1" parent="OcA6J6RhY9BSnMuU-lQl-1">
          <mxGeometry width="50" height="50" relative="1" as="geometry">
            <mxPoint x="330" y="290" as="sourcePoint" />
            <mxPoint x="330" y="238" as="targetPoint" />
          </mxGeometry>
        </mxCell>
        <mxCell id="OcA6J6RhY9BSnMuU-lQl-15" value="" style="endArrow=none;dashed=1;html=1;dashPattern=1 3;strokeWidth=2;rounded=0;" edge="1" parent="OcA6J6RhY9BSnMuU-lQl-1">
          <mxGeometry width="50" height="50" relative="1" as="geometry">
            <mxPoint x="390" y="290" as="sourcePoint" />
            <mxPoint x="390" y="239" as="targetPoint" />
          </mxGeometry>
        </mxCell>
        <mxCell id="OcA6J6RhY9BSnMuU-lQl-16" value="" style="endArrow=none;dashed=1;html=1;dashPattern=1 3;strokeWidth=2;rounded=0;" edge="1" parent="OcA6J6RhY9BSnMuU-lQl-1">
          <mxGeometry width="50" height="50" relative="1" as="geometry">
            <mxPoint x="460" y="290" as="sourcePoint" />
            <mxPoint x="460" y="239" as="targetPoint" />
          </mxGeometry>
        </mxCell>
        <mxCell id="OcA6J6RhY9BSnMuU-lQl-17" value="T0" style="text;html=1;align=center;verticalAlign=middle;resizable=0;points=[];autosize=1;strokeColor=none;fillColor=none;" vertex="1" parent="OcA6J6RhY9BSnMuU-lQl-1">
          <mxGeometry x="240" y="290" width="40" height="30" as="geometry" />
        </mxCell>
        <mxCell id="OcA6J6RhY9BSnMuU-lQl-18" value="T1" style="text;html=1;align=center;verticalAlign=middle;resizable=0;points=[];autosize=1;strokeColor=none;fillColor=none;" vertex="1" parent="OcA6J6RhY9BSnMuU-lQl-1">
          <mxGeometry x="310" y="290" width="40" height="30" as="geometry" />
        </mxCell>
        <mxCell id="OcA6J6RhY9BSnMuU-lQl-19" value="T2" style="text;html=1;align=center;verticalAlign=middle;resizable=0;points=[];autosize=1;strokeColor=none;fillColor=none;" vertex="1" parent="OcA6J6RhY9BSnMuU-lQl-1">
          <mxGeometry x="370" y="290" width="40" height="30" as="geometry" />
        </mxCell>
        <mxCell id="OcA6J6RhY9BSnMuU-lQl-20" value="T3" style="text;html=1;align=center;verticalAlign=middle;resizable=0;points=[];autosize=1;strokeColor=none;fillColor=none;" vertex="1" parent="OcA6J6RhY9BSnMuU-lQl-1">
          <mxGeometry x="440" y="290" width="40" height="30" as="geometry" />
        </mxCell>
        <mxCell id="OcA6J6RhY9BSnMuU-lQl-21" value="" style="shape=image;html=1;verticalAlign=top;verticalLabelPosition=bottom;labelBackgroundColor=#ffffff;imageAspect=0;aspect=fixed;image=https://cdn4.iconfinder.com/data/icons/48-bubbles/48/48.Dashboard-128.png;flipV=0;flipH=1;" vertex="1" parent="OcA6J6RhY9BSnMuU-lQl-1">
          <mxGeometry x="500" y="245" width="28" height="28" as="geometry" />
        </mxCell>
        <mxCell id="ueH7L6Xbr6Vns893WoA1-0" value="" style="endArrow=none;html=1;rounded=0;" edge="1" parent="OcA6J6RhY9BSnMuU-lQl-1" source="OcA6J6RhY9BSnMuU-lQl-5" target="OcA6J6RhY9BSnMuU-lQl-9">
          <mxGeometry width="50" height="50" relative="1" as="geometry">
            <mxPoint x="320" y="259" as="sourcePoint" />
            <mxPoint x="400" y="259" as="targetPoint" />
          </mxGeometry>
        </mxCell>
        <mxCell id="OcA6J6RhY9BSnMuU-lQl-9" value="&lt;b&gt;Uf&lt;/b&gt;" style="rounded=0;whiteSpace=wrap;html=1;" vertex="1" parent="OcA6J6RhY9BSnMuU-lQl-1">
          <mxGeometry x="340" y="245" width="40" height="30" as="geometry" />
        </mxCell>
      </root>
    </mxGraphModel>
  </diagram>
</mxfile>
